<svg xmlns="http://www.w3.org/2000/svg" xmlns:xlink="http://www.w3.org/1999/xlink" version="1.1" x="0px" y="0px" viewBox="0 0 100 125" enable-background="new 0 0 100 100" xml:space="preserve"><g><polygon points="51.751,17.447 51.751,17.447 51.831,17.481 52.685,15.472 47.47,13.259 46.617,15.268 49.224,16.375  "/><path d="M43.351,31.752c0.813-1.913,2.68-3.149,4.758-3.149c0.301,0,0.597,0.038,0.891,0.09c-0.128-0.274-0.351-0.504-0.651-0.632   l-6.926-2.94c-0.307-0.131-0.646-0.135-0.959-0.008c-0.312,0.125-0.555,0.364-0.686,0.673l-5.967,14.057   c-0.271,0.641,0.024,1.382,0.661,1.652l6.926,2.939c0.311,0.132,0.653,0.134,0.966,0.008c0.313-0.126,0.557-0.367,0.688-0.676   l2.378-5.601C43.278,36.854,42.337,34.139,43.351,31.752z"/><polygon points="49.784,18.242 48.638,17.756 47.492,17.269 44.328,24.723 46.62,25.696  "/><rect x="31.259" y="49.786" transform="matrix(-0.9205 -0.3908 0.3908 -0.9205 41.3999 109.7887)" width="1.224" height="1.791"/><rect x="28.289" y="46.562" transform="matrix(0.9205 0.3907 -0.3907 0.9205 21.2115 -10.4411)" width="15.952" height="0.692"/><rect x="35.99" y="51.794" transform="matrix(0.9205 0.3908 -0.3908 0.9205 23.5043 -10.1147)" width="1.224" height="1.791"/><path d="M49.539,30.396c-0.458-0.194-0.938-0.293-1.431-0.293c-1.476,0-2.801,0.877-3.377,2.235c-0.79,1.86,0.08,4.015,1.939,4.806   c0.002,0.001,0.004,0,0.006,0.001c0.001,0.001,0.002,0.002,0.004,0.003c0.456,0.193,0.934,0.29,1.424,0.29   c1.476,0,2.801-0.877,3.377-2.235c0.383-0.901,0.392-1.898,0.024-2.806C51.139,31.49,50.44,30.779,49.539,30.396z"/><path d="M52.437,62.087c0.136-0.181,0.284-0.347,0.439-0.505H25.963c-0.387,0-0.754,0.153-1.035,0.431   c-0.272,0.275-0.426,0.642-0.426,1.024c0,0.806,0.655,1.461,1.461,1.461h24.661L52.437,62.087z"/><path d="M56.455,61.581c-1.119,0-2.146,0.513-2.819,1.408l-8.69,11.558h23.02l-8.69-11.558   C58.602,62.094,57.574,61.581,56.455,61.581z M56.455,67.202c-1.079,0-1.954-0.875-1.954-1.954c0-1.079,0.875-1.954,1.954-1.954   c1.079,0,1.954,0.875,1.954,1.954C58.409,66.327,57.534,67.202,56.455,67.202z"/><path d="M30.704,76.047c-1.31,0-2.375,1.065-2.375,2.375v0.729c0,1.31,1.065,2.375,2.375,2.375h39.249   c1.31,0,2.375-1.065,2.375-2.375v-0.729c0-1.31-1.065-2.375-2.375-2.375h-0.467h-0.02H43.443H30.704z"/><path d="M50,5C25.147,5,5,25.147,5,50c0,24.853,20.147,45,45,45s45-20.147,45-45C95,25.147,74.853,5,50,5z M27.114,44.214   l0.856-2.018c0.078-0.183,0.225-0.328,0.409-0.402c0.186-0.075,0.39-0.073,0.574,0.005l16.064,6.819   c0.381,0.162,0.56,0.602,0.397,0.983L44.56,51.62c-0.078,0.183-0.225,0.328-0.409,0.402c-0.091,0.037-0.186,0.055-0.281,0.055   c-0.1,0-0.199-0.02-0.293-0.06l-16.064-6.819C27.13,45.036,26.952,44.596,27.114,44.214z M34.016,53.379l1.285-3.029   c0.078-0.183,0.225-0.328,0.409-0.402c0.186-0.075,0.391-0.073,0.574,0.005l2.508,1.064c0.184,0.078,0.328,0.225,0.402,0.41   c0.074,0.184,0.073,0.391-0.005,0.574l-1.286,3.029c-0.078,0.183-0.226,0.328-0.409,0.402c-0.091,0.037-0.186,0.055-0.281,0.055   c-0.1,0-0.199-0.02-0.293-0.06l-2.507-1.064C34.032,54.2,33.854,53.76,34.016,53.379z M33.173,53.021   c-0.121,0.286-0.398,0.457-0.69,0.457c-0.098,0-0.197-0.019-0.293-0.06l-2.508-1.064c-0.184-0.078-0.328-0.225-0.402-0.41   c-0.074-0.184-0.073-0.391,0.005-0.574l1.286-3.029c0.162-0.381,0.604-0.558,0.983-0.397l2.508,1.064   c0.184,0.078,0.328,0.225,0.402,0.41c0.074,0.184,0.073,0.391-0.005,0.574L33.173,53.021z M69.841,74.547h0.112   c2.137,0,3.875,1.738,3.875,3.875v0.729c0,2.137-1.738,3.875-3.875,3.875H30.704c-2.137,0-3.875-1.738-3.875-3.875v-0.729   c0-2.137,1.738-3.875,3.875-3.875h12.365l6.427-8.549H25.963c-1.633,0-2.961-1.328-2.961-2.961c0-0.779,0.307-1.52,0.864-2.084   c0.571-0.564,1.313-0.871,2.097-0.871h29.603c0.111,0,0.221,0.017,0.332,0.031c0.184-0.02,0.37-0.032,0.558-0.032   c1.479,0,2.838,0.634,3.794,1.741c4.351-2.321,7.136-6.902,7.136-11.846c0-7.399-6.02-13.418-13.419-13.418   c-0.423,0-0.96,0.043-1.604,0.122c-0.95,1.393-2.526,2.258-4.258,2.258c-0.441,0-0.871-0.076-1.295-0.187l-2.377,5.6   c-0.288,0.679-0.823,1.205-1.508,1.481c-0.335,0.135-0.686,0.203-1.035,0.203c-0.366,0-0.731-0.074-1.078-0.221l-6.926-2.939   c-1.397-0.593-2.051-2.217-1.456-3.619L38.396,25.2c0.288-0.678,0.823-1.203,1.507-1.479c0.683-0.275,1.43-0.266,2.104,0.019   l0.939,0.398l3.165-7.456l-0.77-0.327c-0.381-0.162-0.56-0.602-0.397-0.983l1.438-3.39c0.078-0.183,0.225-0.328,0.409-0.402   c0.186-0.075,0.391-0.073,0.574,0.005l6.596,2.799c0.184,0.078,0.328,0.225,0.402,0.41c0.074,0.184,0.073,0.391-0.005,0.574   l-1.439,3.39c-0.121,0.286-0.398,0.457-0.69,0.457c-0.098,0-0.197-0.019-0.293-0.06l-0.771-0.327L48,26.284l0.933,0.396   c1.068,0.454,1.71,1.493,1.682,2.602c0.19,0.106,0.377,0.214,0.551,0.342c0.009-0.001,0.015-0.006,0.024-0.007   c0.772-0.064,1.881-0.141,2.775-0.141c11.308,0,20.508,9.196,20.508,20.5c0,7.196-3.782,13.835-9.915,17.545L69.841,74.547z"/><path d="M53.966,30.977c-0.461,0-0.985,0.023-1.49,0.053c0.159,0.255,0.306,0.521,0.421,0.806c0.425,1.052,0.472,2.184,0.184,3.26   c0.327-0.026,0.621-0.038,0.886-0.038c8.227,0,14.919,6.692,14.919,14.918c0,5.411-2.998,10.435-7.705,13.051l2.473,3.289   c5.762-3.424,9.321-9.62,9.321-16.34C72.974,39.5,64.446,30.977,53.966,30.977z"/></g><text x="0" y="115" fill="#000000" font-size="5px" font-weight="bold" font-family="'Helvetica Neue', Helvetica, Arial-Unicode, Arial, Sans-serif">Created by Maxim Kulikov</text><text x="0" y="120" fill="#000000" font-size="5px" font-weight="bold" font-family="'Helvetica Neue', Helvetica, Arial-Unicode, Arial, Sans-serif">from the Noun Project</text></svg>